PathFileType	4	(X/Y/Z)	D:\Share\Shared_Data\Ergonomics\Sit To Stand Pertubation\S0\Free STS.trc
DataRate	CameraRate	NumFrames	NumMarkers	Units	OrigDataRate	OrigDataStartFrame	OrigNumFrames	
100	100	11	18	m	100	3238	211
Frame#	Time	R_Toe			R_ASIS			R_Pelvis			V_Sacral			L_Pelvis			L_ASIS			Clavical			R_Acromium			L_Acromium			Sternum			Torso			R_Thigh_Med			R_Thigh_Lat			R_Thigh			R_Shank_Med			R_Shank_Lat			R_Shank			R_Heel			
		X1	Y1	Z1	X2	Y2	Z2	X3	Y3	Z3	X4	Y4	Z4	X5	Y5	Z5	X6	Y6	Z6	X7	Y7	Z7	X8	Y8	Z8	X9	Y9	Z9	X10	Y10	Z10	X11	Y11	Z11	X12	Y12	Z12	X13	Y13	Z13	X14	Y14	Z14	X15	Y15	Z15	X16	Y16	Z16	X17	Y17	Z17	X18	Y18	Z18	

3238	18.8	0.37243945	0.052166428	0.14275162	-0.076823112	0.74442957	0.15322336	-0.20349947	0.71813586	0.19575266	-0.31215244	0.67972028	-0.035133541	-0.17075894	0.70987305	-0.21340266	-0.0539646	0.74121918	-0.16330618	-0.078597717	1.121574	-0.015979916	-0.16542529	1.1811725	0.12482116	-0.17155212	1.1803989	-0.16718309	-0.043800198	1.0301818	-0.031837784	-0.072661339	1.0718014	-0.13866925	0.28888382	0.49495831	0.086260277	0.26253873	0.51195352	0.21862253	0.19006934	0.64551324	0.13241882	0.25153201	0.10626579	0.11172781	0.19477043	0.090181358	0.19921472	0.23849174	0.31162323	0.2261436	0.15508897	0.047735489	0.15169331
3239	18.81	0.37242554	0.052173992	0.14271185	-0.0767827	0.74441382	0.1532057	-0.20346396	0.71819312	0.19575815	-0.31215143	0.6797641	-0.035124481	-0.17077252	0.70992444	-0.21340469	-0.053960995	0.74118732	-0.16332045	-0.078049866	1.1214688	-0.015945466	-0.16476381	1.1811505	0.12489386	-0.17094623	1.1804033	-0.16713393	-0.043389786	1.0300221	-0.031818472	-0.072190994	1.0716671	-0.13863008	0.28884186	0.49494766	0.086142288	0.26254404	0.51197327	0.21850156	0.19005788	0.64551196	0.13231522	0.25151694	0.10626077	0.11170533	0.1947693	0.090187126	0.19920197	0.23849133	0.31164114	0.22609241	0.15507994	0.047728889	0.15169986
3240	18.82	0.37240759	0.052182693	0.14267047	-0.076745255	0.74439557	0.15319006	-0.20343187	0.71825122	0.19576506	-0.31215216	0.67980853	-0.035115372	-0.17078612	0.70997961	-0.21340569	-0.053958092	0.74115613	-0.16333167	-0.077467911	1.1213556	-0.015908986	-0.16406793	1.1811284	0.12496539	-0.17029665	1.1804041	-0.16708504	-0.042951977	1.0298492	-0.031795017	-0.071685829	1.0715289	-0.13858804	0.2887926	0.49493481	0.086017479	0.26254614	0.51199008	0.21837494	0.19004292	0.64550769	0.13220947	0.25149977	0.10625546	0.11168121	0.1947661	0.090191208	0.19918939	0.23848833	0.31165778	0.22604034	0.15506842	0.047718597	0.15170729
3241	18.83	0.37238635	0.052192162	0.14262796	-0.076710129	0.74437421	0.15317731	-0.20340292	0.71830939	0.19577396	-0.31215341	0.67985388	-0.035105999	-0.1707984	0.71003705	-0.21340634	-0.053955021	0.74112567	-0.1633391	-0.076848877	1.1212336	-0.015870258	-0.16333559	1.1811058	0.12503575	-0.1696015	1.1804001	-0.16703653	-0.042485973	1.0296635	-0.031768713	-0.071144279	1.0713855	-0.13854358	0.28873608	0.49491922	0.085887619	0.2625455	0.51200342	0.21824536	0.19002518	0.64550055	0.13210315	0.25148148	0.10625031	0.11165621	0.19476073	0.090193939	0.19917773	0.23848334	0.31167319	0.22598743	0.15505446	0.047705414	0.15171547
3242	18.84	0.37236319	0.052201611	0.14258472	-0.07667627	0.74434973	0.15316866	-0.20337657	0.71836682	0.19578528	-0.31215436	0.67990009	-0.035096169	-0.17080806	0.7100957	-0.21340755	-0.053950531	0.74109644	-0.16334232	-0.076190613	1.1211019	-0.015829045	-0.16256419	1.1810826	0.12510497	-0.16885872	1.180391	-0.16698863	-0.041992039	1.0294642	-0.031740557	-0.07056443	1.0712356	-0.13849681	0.28867258	0.49490097	0.085754822	0.26254263	0.51201379	0.21811534	0.19000558	0.64549146	0.13199747	0.25146266	0.10624554	0.11163121	0.19475356	0.090196106	0.19916745	0.2384771	0.31168784	0.2259337	0.15503873	0.047690678	0.15172418
3243	18.85	0.37233926	0.05221003	0.14254103	-0.076642525	0.74432239	0.15316541	-0.20335217	0.71842303	0.19579932	-0.31215448	0.67994812	-0.03508567	-0.17081393	0.7101543	-0.21341	-0.053942921	0.74106854	-0.16334119	-0.07549118	1.12096	-0.015785364	-0.16175043	1.1810571	0.12517315	-0.16806624	1.1803761	-0.16694164	-0.041468952	1.0292513	-0.031710743	-0.069943909	1.0710776	-0.13844788	0.28860281	0.49488086	0.085621452	0.26253827	0.51202252	0.21798732	0.18998509	0.64548206	0.13189372	0.25144342	0.10624113	0.11160696	0.19474559	0.090198586	0.19915875	0.23847083	0.31170233	0.22587927	0.15502235	0.047675968	0.15173337
3244	18.86	0.37231583	0.052216705	0.14249722	-0.076607826	0.74429248	0.1531683	-0.20332874	0.71847791	0.19581602	-0.31215363	0.67999866	-0.03507431	-0.17081546	0.71021234	-0.21341362	-0.053929977	0.74104248	-0.16333575	-0.074748207	1.1208062	-0.015739595	-0.16089024	1.1810277	0.12524056	-0.16722131	1.180355	-0.16689587	-0.040913315	1.0290248	-0.031678793	-0.069279861	1.0709113	-0.13839708	0.28852817	0.49486032	0.085489876	0.26253302	0.51203107	0.2178633	0.18996466	0.64547418	0.13179337	0.25142383	0.10623732	0.11158389	0.19473813	0.090202171	0.19915154	0.23846596	0.31171747	0.2258243	0.15500662	0.047662834	0.15174297
3245	18.87	0.37229379	0.052221439	0.1424536	-0.076571213	0.7442605	0.15317726	-0.20330507	0.71853168	0.19583493	-0.31215182	0.68005261	-0.035061932	-0.17081274	0.7102699	-0.21341743	-0.053908871	0.74101898	-0.16332628	-0.073958961	1.1206392	-0.015692529	-0.15997881	1.1809923	0.12530782	-0.16632034	1.1803274	-0.16685159	-0.040321018	1.0287833	-0.0316444	-0.068569054	1.0707368	-0.13834523	0.28845041	0.49484113	0.085362244	0.26252725	0.51204126	0.21774496	0.18994485	0.64546936	0.13169827	0.25140428	0.1062346	0.11156214	0.19473247	0.090207535	0.19914537	0.23846349	0.31173389	0.22576898	0.15499261	0.047652557	0.15175276
3246	18.88	0.3722739	0.052224682	0.14241042	-0.07653167	0.74422662	0.1531915	-0.20327977	0.71858502	0.19585535	-0.3121488	0.68011115	-0.035048405	-0.17080621	0.71032751	-0.21341977	-0.053876156	0.74099933	-0.16331323	-0.073120186	1.1204576	-0.015645256	-0.15901082	1.1809497	0.12537551	-0.16535925	1.1802941	-0.1668089	-0.039688366	1.0285254	-0.031608057	-0.067808029	1.070554	-0.13829337	0.28837146	0.49482516	0.085240456	0.26252094	0.51205426	0.21763354	0.1899259	0.64546881	0.13161038	0.25138551	0.10623376	0.11154164	0.19472923	0.09021521	0.19913982	0.23846332	0.31175208	0.22571384	0.15498091	0.04764584	0.15176247
3247	18.89	0.37225592	0.05222739	0.1423678	-0.076488258	0.74419147	0.15320985	-0.20325131	0.71863873	0.19587634	-0.31214417	0.6801748	-0.035033585	-0.17079642	0.71038593	-0.21341872	-0.053827877	0.74098553	-0.16329752	-0.072227829	1.1202601	-0.01559879	-0.1579808	1.1808978	0.12544398	-0.16433359	1.1802555	-0.16676767	-0.039012203	1.0282477	-0.031570927	-0.066993233	1.0703622	-0.13824281	0.28829297	0.49481409	0.085126183	0.26251346	0.51207068	0.21752985	0.18990781	0.64547296	0.13153148	0.25136829	0.10623569	0.11152233	0.19472835	0.09022551	0.19913428	0.23846416	0.31177234	0.22565977	0.1549716	0.047642796	0.15177184
3248	18.9	0.37223886	0.05223077	0.14232571	-0.076440025	0.7441554	0.153231	-0.20321828	0.71869385	0.19589711	-0.31213721	0.68024445	-0.035017349	-0.17078369	0.71044635	-0.21341307	-0.053760002	0.74097949	-0.16328041	-0.071277428	1.1200452	-0.015553709	-0.15688347	1.1808361	0.12551297	-0.16323802	1.1802139	-0.16672768	-0.038289986	1.027948	-0.031534452	-0.066121277	1.0701609	-0.13819466	0.28821609	0.49480927	0.085020897	0.26250388	0.51209052	0.21743442	0.18989021	0.64548163	0.13146268	0.25135287	0.10624107	0.1115042	0.194729	0.090238411	0.19912823	0.23846402	0.31179462	0.22560785	0.15496407	0.047642971	0.15178038
